<?xml version="1.0" encoding="UTF-8" standalone="no"?><!-- Generator: Gravit.io --><svg xmlns="http://www.w3.org/2000/svg" xmlns:xlink="http://www.w3.org/1999/xlink" style="isolation:isolate" viewBox="789.438 314.219 191.562 191.562" width="191.562pt" height="191.562pt"><defs><clipPath id="_clipPath_4fRKyRZS9nTI2d9qNeQgvMhkM0ub00ug"><rect x="789.438" y="314.219" width="191.562" height="191.562"/></clipPath></defs><g clip-path="url(#_clipPath_4fRKyRZS9nTI2d9qNeQgvMhkM0ub00ug)"><rect x="789.438" y="314.219" width="191.562" height="191.562" style="fill:rgb(155,148,148)"/><rect x="789.438" y="314.219" width="191.562" height="191.562" transform="matrix(1,0,0,1,0,0)" fill="rgb(0,0,0)"/><mask id="_mask_bFhRw0dtCCpxhv6SYYue1SN0yJNVqVWW"><rect x="807.596" y="332.376" width="155.247" height="155.247" fill="white" stroke="none"/></mask><rect x="807.596" y="332.376" width="155.247" height="155.247" transform="matrix(1,0,0,1,0,0)" fill="none"/><rect x="807.596" y="332.376" width="155.247" height="155.247" transform="matrix(1,0,0,1,0,0)" fill="none" mask="url(#_mask_bFhRw0dtCCpxhv6SYYue1SN0yJNVqVWW)" vector-effect="non-scaling-stroke" stroke-width="8" stroke="rgb(255,255,255)" stroke-linejoin="miter" stroke-linecap="square" stroke-miterlimit="2"/><g clip-path="url(#_clipPath_lJoeeXqBZWQ3pBa1biuECWOvOXROtjcv)"><text transform="matrix(1,0,0,1,824.219,393.887)" style="font-family:'Open Sans';font-weight:400;font-size:55px;font-style:normal;fill:#ffffff;stroke:none;">WEB</text><text transform="matrix(1,0,0,1,824.219,468.787)" style="font-family:'Open Sans';font-weight:400;font-size:55px;font-style:normal;fill:#ffffff;stroke:none;">DEV</text></g><defs><clipPath id="_clipPath_lJoeeXqBZWQ3pBa1biuECWOvOXROtjcv"><rect x="0" y="0" width="120" height="149.8" transform="matrix(1,0,0,1,824.219,335.1)"/></clipPath></defs></g></svg>